# xmcd CD database file
#
# Track frame offsets:
#	150
#	14613
#	35823
#	53730
#
# Disc length: 864 seconds
#
# Revision: 0
# Processed by: cddbd v1.5.2PL0 Copyright (c) Steve Scherf et al.
# Submitted via: CDex 1.78
#
DISCID=30035e04
DTITLE=The Dive Poets - The Good and the Light
DYEAR=2010
DGENRE=Country
TTITLE0=I Still Miss Louise
TTITLE1=Club 91
TTITLE2=Lord, Take Me Home
TTITLE3=Austin
EXTD=YEAR: 2010
EXTT0=
EXTT1=
EXTT2=
EXTT3=
PLAYORDER=
